<svg xmlns="http://www.w3.org/2000/svg" width="64" height="64" enable-background="new 0 0 64 64" viewBox="0 0 64 64" className="w-7 h-7 "><path d="M55.961,29.522H35.178V19.499h14.995c0.199,0,0.394-0.06,0.559-0.17l5.788-3.894c0.275-0.187,0.441-0.497,0.441-0.83
              s-0.166-0.644-0.441-0.83l-5.788-3.894c-0.165-0.11-0.359-0.17-0.559-0.17H35.178V5c0-0.553-0.447-1-1-1h-4.355
              c-0.553,0-1,0.447-1,1v4.712H8.039c-0.553,0-1,0.447-1,1v7.787c0,0.553,0.447,1,1,1h20.783v10.023H13.827
              c-0.199,0-0.394,0.06-0.559,0.17L7.48,33.586c-0.275,0.187-0.441,0.497-0.441,0.83s0.166,0.644,0.441,0.83l5.788,3.894
              c0.165,0.11,0.359,0.17,0.559,0.17h14.995V58h-8.499c-0.553,0-1,0.447-1,1s0.447,1,1,1h9.499h4.355h9.499c0.553,0,1-0.447,1-1
              s-0.447-1-1-1h-8.499V39.31h20.783c0.553,0,1-0.447,1-1v-7.787C56.961,29.97,56.514,29.522,55.961,29.522z M30.822,6h2.355v3.712
              h-2.355V6z M9.039,17.499v-5.787h20.773c0.003,0,0.006,0.002,0.01,0.002s0.006-0.002,0.01-0.002h4.336
              c0.003,0,0.006,0.002,0.01,0.002s0.006-0.002,0.01-0.002h15.681l4.301,2.894l-4.301,2.894H9.039z M33.178,19.499v10.023h-2.355
              V19.499H33.178z M33.178,58h-2.355V39.31h2.355V58z M54.961,37.31H14.132l-4.301-2.894l4.301-2.894h40.829V37.31z"/></svg>